<svg xmlns="http://www.w3.org/2000/svg" width="702.037" height="407.95" viewBox="0 0 702.037 407.95">
  <g id="admin" transform="translate(-0.08 -0.012)">
    <path id="Path_91" data-name="Path 91" d="M754.876,283.186c.077-60.941-48.81-111.233-109.693-112.8a112.734,112.734,0,0,0-110.527,78.9,113.714,113.714,0,0,0-46.7,2.155,334.1,334.1,0,0,1-168.2,0,113.714,113.714,0,0,0-46.7-2.155,112.734,112.734,0,0,0-110.527-78.9c-60.941,1.565-109.8,51.864-109.693,112.8a112.657,112.657,0,0,0,57.765,98.268,112.214,112.214,0,0,0-17.012,59.529c0,61.807,50.395,112.458,112.2,112.721a112.1,112.1,0,0,0,62.621-18.667,112.708,112.708,0,0,0,135.417-8.461A112.708,112.708,0,0,0,539.3,535.037a112.1,112.1,0,0,0,62.621,18.693c61.807-.263,112.221-50.914,112.2-112.721a112.215,112.215,0,0,0-17.012-59.529,112.657,112.657,0,0,0,57.765-98.294Z" transform="translate(-52.76 -145.77)" fill="#0019ff" opacity="0.1"/>
    <path id="Path_92" data-name="Path 92" d="M444.628,414.079s-33.357-2.354-41.055.212-23.093,36.564-23.093,36.564l49.394,1.924,21.169-4.49Z" transform="translate(-170.225 -232.798)" fill="#2f2e41"/>
    <path id="Path_93" data-name="Path 93" d="M684.72,590.04l1.924-81.013,59.016-1.1v82.11Z" transform="translate(-245.457 -182.098)" fill="#3f3d56"/>
    <path id="Path_94" data-name="Path 94" d="M541.678,496.957c3.939,5.363,4.574,12.387,5.068,19.02q1.437,19.244,2.861,38.489c.641,8.615,1.283,17.32-.218,25.852a5.016,5.016,0,0,1-.641,1.924,4.862,4.862,0,0,1-3.143,1.694c-11.765,2.752-24.049.051-35.827-2.649-2.168-16.229,1.341-32.754,6.934-48.111,3.413-9.372,7.589-18.43,11.8-27.462,1.726-3.689,3.349-10.373,6.165-13.259C537.855,489.137,539.561,494.083,541.678,496.957Z" transform="translate(-216.348 -260.855)" fill="#2f2e41"/>
    <path id="Path_95" data-name="Path 95" d="M541.678,496.957c3.939,5.363,4.574,12.387,5.068,19.02q1.437,19.244,2.861,38.489c.641,8.615,1.283,17.32-.218,25.852a5.016,5.016,0,0,1-.641,1.924,4.862,4.862,0,0,1-3.143,1.694c-11.765,2.752-24.049.051-35.827-2.649-2.168-16.229,1.341-32.754,6.934-48.111,3.413-9.372,7.589-18.43,11.8-27.462,1.726-3.689,3.349-10.373,6.165-13.259C537.855,489.137,539.561,494.083,541.678,496.957Z" transform="translate(-216.348 -260.855)" opacity="0.1"/>
    <path id="Path_96" data-name="Path 96" d="M606.906,592.273c2.636-2.733,5.35-5.517,8.763-7.185,4.24-2.078,9.128-2.213,13.792-2.989,3.663-.641,7.274-1.642,10.989-1.835s7.7.59,10.4,3.118c3.207,2.951,4.029,7.563,4.683,11.848,1.572,10.347,2.778,21.721-2.829,30.554-3.791,5.979-10.354,9.9-17.281,11.322a64.437,64.437,0,0,1-13.112.879l-41.183-.045c-.763,0-.237-11.97-.058-13.08a23.015,23.015,0,0,1,4.163-10.1C591.357,606.674,599.844,599.6,606.906,592.273Z" transform="translate(-242.016 -292.723)" fill="#fbbebe"/>
    <path id="Path_97" data-name="Path 97" d="M606.906,592.273c2.636-2.733,5.35-5.517,8.763-7.185,4.24-2.078,9.128-2.213,13.792-2.989,3.663-.641,7.274-1.642,10.989-1.835s7.7.59,10.4,3.118c3.207,2.951,4.029,7.563,4.683,11.848,1.572,10.347,2.778,21.721-2.829,30.554-3.791,5.979-10.354,9.9-17.281,11.322a64.437,64.437,0,0,1-13.112.879l-41.183-.045c-.763,0-.237-11.97-.058-13.08a23.015,23.015,0,0,1,4.163-10.1C591.357,606.674,599.844,599.6,606.906,592.273Z" transform="translate(-242.016 -292.723)" opacity="0.1"/>
    <path id="Path_98" data-name="Path 98" d="M348.262,355.41l-7.98,10.463c-5.722,7.512-12.387,15.6-21.721,17.018-.577,1.963,1.347,3.695,3.053,4.818,24.267,15.922,52.55,26.115,81.545,27.417,3.733.173,8.339-.353,9.763-3.817,1.283-3.137-1.065-6.549-3.567-8.84-3.753-3.445-8.57-6.8-8.936-11.88-.244-3.413,1.681-6.543,2.8-9.783,1.52-4.413,1.552-9.18,1.572-13.843a12.957,12.957,0,0,0-.641-4.971,11,11,0,0,0-2.566-3.406c-8.7-8.6-20.45-12.83-31.542-17.378-3.721-1.533-10.559-6.53-13.817-2.239-1.527,2.008-1.508,5.773-2.63,8.172a47.007,47.007,0,0,1-5.331,8.269Z" transform="translate(-147.989 -205.614)" fill="#fbbebe"/>
    <path id="Path_99" data-name="Path 99" d="M348.262,355.41l-7.98,10.463c-5.722,7.512-12.387,15.6-21.721,17.018-.577,1.963,1.347,3.695,3.053,4.818,24.267,15.922,52.55,26.115,81.545,27.417,3.733.173,8.339-.353,9.763-3.817,1.283-3.137-1.065-6.549-3.567-8.84-3.753-3.445-8.57-6.8-8.936-11.88-.244-3.413,1.681-6.543,2.8-9.783,1.52-4.413,1.552-9.18,1.572-13.843a12.957,12.957,0,0,0-.641-4.971,11,11,0,0,0-2.566-3.406c-8.7-8.6-20.45-12.83-31.542-17.378-3.721-1.533-10.559-6.53-13.817-2.239-1.527,2.008-1.508,5.773-2.63,8.172a47.007,47.007,0,0,1-5.331,8.269Z" transform="translate(-147.989 -205.614)" opacity="0.1"/>
    <circle id="Ellipse_13" data-name="Ellipse 13" cx="53.884" cy="53.884" r="53.884" transform="translate(197.746 59.297)" fill="#fbbebe"/>
    <path id="Path_100" data-name="Path 100" d="M340.8,429.142c-7.7,1.649-15.678-.68-23.228-2.983-10.867-3.316-22.574-7.242-28.912-16.678-1.475-2.2-2.713-4.747-5.016-6.049-4.971-2.816-10.726,1.732-14.876,5.651-20.245,19.116-47.47,31.548-62.031,55.27-8.307,13.542-11.656,29.579-12.528,45.449-.443,8.044-.269,16.262,2.136,23.946C203.585,556.841,229,570.4,236.91,593.265c4.8,13.888,1.334,27.308-.706,41.863l192.675.4a501.73,501.73,0,0,1-4.6-82.751c.16-5.947.43-11.944,1.892-17.718,1.193-4.7,3.207-9.289,3.252-14.113.141-8.872-6.107-17.192-4.792-25.967s9.9-16.037,8.3-24.684c-1.924-10.264-4.131-21.31-8.455-30.791-2.245-4.952-4.773-9.9-8.577-13.792s-8.615-6.5-13.567-8.647a91.86,91.86,0,0,0-37.353-7.505,8.013,8.013,0,0,0-3.4.558c-3.162,1.514-3.137,5.9-4.086,9.276C355.661,425.934,347.264,431.233,340.8,429.142Z" transform="translate(-103.376 -229.021)" fill="#2f2e41"/>
    <rect id="Rectangle_37" data-name="Rectangle 37" width="1.283" height="19.886" transform="translate(308.745 273.16) rotate(-24.98)" fill="#d0d2d5"/>
    <rect id="Rectangle_38" data-name="Rectangle 38" width="7.698" height="62.224" transform="translate(311.009 284.838) rotate(-24.98)" fill="#6c63ff"/>
    <path id="Path_101" data-name="Path 101" d="M214.586,620.951c-2.38,16.512,5.177,32.607,8.808,48.894,2.688,12.053,3.207,24.485,3.246,36.834.366-.115.3.122.641,0H358.964c21.079-18.808,42.748-37.892,70.467-43.37,3.977-.783,8.031-1.283,11.867-2.566,14.651-4.939,22.888-20.117,29.3-34.185,2.277-5,4.49-10.989,1.7-15.729a13.85,13.85,0,0,0-3.8-3.932,33.216,33.216,0,0,0-30.271-4.657c-18.513,6.46-27.584,27.648-44.2,38.021-7.7,4.792-16.646,7.056-24.915,10.738-12.348,5.523-23.093,14.247-35.532,19.533-16.852,7.153-35.775,7.589-53.243,13.067,6.319-7.255,8.493-17.487,7.345-27.038s-5.311-18.5-10.4-26.66c-4.567-7.313-10.424-14.5-18.6-17.166C244.2,608.019,229.545,618.25,214.586,620.951Z" transform="translate(-110.586 -299.982)" fill="#fbbebe"/>
    <path id="Path_102" data-name="Path 102" d="M351.474,290.091c5.5-4.253,6.556-7.845,7.922-14.658.853-4.266.943-9.115,4.048-12.188,6.306-6.184,18.526.725,25.21-5.048,4.17-3.592,3.958-10.437,7.845-14.331,2.855-2.867,7.236-3.458,11.284-3.637a96.169,96.169,0,0,1,18.269.937c4.317.641,8.615,1.565,12.977,1.533,8.724-.064,16.909-3.939,24.768-7.73A3.483,3.483,0,0,1,460.859,233a75.288,75.288,0,0,1,9.423-4.176c-.847-2.6-6.53-.526-6.819-3.259a2.938,2.938,0,0,1,.744-1.924l5.542-7.9c-5.267,1.347-10.584-2.3-13.9-6.607s-5.542-9.475-9.436-13.272c-7.794-7.589-19.944-7.794-30.791-7.525l-20.1.494c-9.327.231-18.757.481-27.789,2.829a34.152,34.152,0,0,0-11.6,5.068c-4.336,3.111-7.531,7.563-11.636,10.969-5.5,4.561-12.656,7.306-16.749,13.157a17.615,17.615,0,0,0-2.912,12.714c.8,4.978,3.721,9.385,4.9,14.292,2.014,8.423-1.283,17.41.641,25.865,1.418,6.338,5.575,11.662,9.622,16.743.93,1.168,2.046,2.438,3.535,2.5a6.907,6.907,0,0,0,2.63-.712" transform="translate(-150.2 -152.194)" fill="#2f2e41"/>
    <path id="Path_103" data-name="Path 103" d="M771.451,541.562v13.471l-28.225,35.281L446.22,581.975V567.221l79.563-29Z" transform="translate(-159.95 -192.958)" fill="#3f3d56"/>
    <path id="Path_104" data-name="Path 104" d="M771.451,543.43V556.9l-28.225,35.281L446.22,583.843V570.372L741.3,577.429Z" transform="translate(-159.95 -194.826)" opacity="0.1"/>
    <path id="Path_105" data-name="Path 105" d="M814.473,525.43v11.547l-30.15,34-218.1-5.215V551.731l71.2-26.3Z" transform="translate(-202.972 -188.372)" fill="#d0d2d5"/>
    <path id="Path_106" data-name="Path 106" d="M814.473,525.43v11.547l-30.15,34-218.1-5.215V551.731l218.1,5.773Z" transform="translate(-202.972 -188.372)" opacity="0.1"/>
    <path id="Path_107" data-name="Path 107" d="M684.22,463.122l1.924-141.767,59.016-1.924V463.122Z" transform="translate(-245.277 -114.517)" fill="#3f3d56"/>
    <path id="Path_108" data-name="Path 108" d="M396.949,581.164l7.088,4.49-4.3-7.826a7,7,0,0,1,4.285-1.533h.115a7.479,7.479,0,0,0,1.469-.109l2.406,1.527-1.033-1.873a8.564,8.564,0,0,0,4.2-3.208l4.3,2.726-2.713-4.94a12.566,12.566,0,0,1,9.622-4.869c4.49,0,8.455,2.656,11.021,6.8a8.249,8.249,0,0,0,7.287,3.932h.244c4.933,0,8.936,5.6,8.936,12.5s-4,12.5-8.936,12.5a6.652,6.652,0,0,1-3.111-.776A12.906,12.906,0,0,0,427,600.293a11.284,11.284,0,0,1-9.192,0,12.926,12.926,0,0,0-10.726.212,6.684,6.684,0,0,1-3.079.757c-4.933,0-8.936-5.594-8.936-12.5A15.8,15.8,0,0,1,396.949,581.164Z" transform="translate(-175.456 -287.457)" fill="#6c63ff"/>
    <path id="Path_109" data-name="Path 109" d="M418.78,608.559a13.2,13.2,0,0,1,7.659.834,11.3,11.3,0,0,0,9.2,0,12.894,12.894,0,0,1,10.815.212,6.755,6.755,0,0,0,3.111.776c4.388,0,8.031-4.42,8.795-10.264a8.392,8.392,0,0,1-2.194-2.361c-2.566-4.144-6.556-6.806-11.021-6.806s-8.41,2.63-10.982,6.729a8.455,8.455,0,0,1-7.281,4h-.115C423.277,601.682,420.249,604.453,418.78,608.559Z" transform="translate(-183.957 -296.564)" opacity="0.1"/>
    <path id="Path_110" data-name="Path 110" d="M205.113,515.334c-2.13,8.583-4.266,17.192-5.337,25.967a108.808,108.808,0,0,0,1.54,35.544c.725,3.432,1.617,6.864,1.6,10.373s-1.071,7.178-3.669,9.526a57.7,57.7,0,0,1,55.905-3.5c8.557,4.189,17.057,10.751,26.468,9.263.866-5.279-4.259-10.264-3.06-15.5.879-3.81,4.875-6.235,5.979-9.988,1.418-4.792-2.271-9.417-3.907-14.113a37.531,37.531,0,0,1-1.456-7.2c-1.373-9.975-3.207-19.976-6.96-29.322s-9.552-18.071-17.7-24a61.786,61.786,0,0,0-16.287-8.012c-4.522-1.565-11.1-4.689-15.992-3.849C211.714,492.407,207.268,506.687,205.113,515.334Z" transform="translate(-105.154 -260.507)" opacity="0.1"/>
    <path id="Path_111" data-name="Path 111" d="M202.113,512.334c-2.13,8.583-4.266,17.192-5.337,25.967a108.808,108.808,0,0,0,1.54,35.544c.725,3.432,1.617,6.864,1.6,10.373s-1.071,7.178-3.669,9.526a57.7,57.7,0,0,1,55.905-3.5c8.557,4.189,17.057,10.751,26.468,9.263.866-5.279-4.259-10.264-3.06-15.5.879-3.81,4.875-6.235,5.979-9.988,1.418-4.792-2.271-9.417-3.907-14.113a37.53,37.53,0,0,1-1.456-7.2c-1.373-9.975-3.207-19.976-6.96-29.322s-9.552-18.071-17.7-24a61.783,61.783,0,0,0-16.287-8.012c-4.522-1.565-11.1-4.689-15.992-3.849C208.714,489.407,204.268,503.686,202.113,512.334Z" transform="translate(-104.079 -259.432)" fill="#2f2e41"/>
    <path id="Path_112" data-name="Path 112" d="M841.7,432.266c-2.258,12.746-11.515,22.946-20.373,32.388-11.309,12.053-21.945,23.979-33.254,36.038H643.025a18.36,18.36,0,0,0-4.6.115l-2.175.641c-10.77-7.922-19.11-18.6-27.3-29.187l-14.831-19.116c-7.569-9.763-15.569-21.047-13.728-33.261a7.205,7.205,0,0,1,1.36-3.612,8.339,8.339,0,0,1,2.662-1.854c20.527-10.424,43.621-14.433,65.752-20.932,3.426-1.007,7.056-2.2,9.372-4.9,3.13-3.6,3.207-8.827,4.176-13.471s3.047-9.212,4.208-13.92c1.341-5.472,1.443-11.155,1.533-16.794q.154-9.1.3-18.186t.3-18.058c23.735-.462,47.162-2.29,70.794-.449,2.418.192,5.036.481,6.793,2.143a10.321,10.321,0,0,1,2.418,4.965,121.708,121.708,0,0,1,3.284,21.913c.8,10.726.982,21.56,2.771,32.151.988,5.857,2.566,11.842,6.325,16.448,5.215,6.415,13.619,9.032,21.483,11.547q24.447,7.775,48.111,17.7a20.024,20.024,0,0,1,6.594,3.849C842.128,421.881,842.557,427.41,841.7,432.266Z" transform="translate(-241.801 -194.728)" fill="#d0d2d5"/>
    <path id="Path_113" data-name="Path 113" d="M803.435,336.685c-4.785,5.2-14.266,8.294-19.648,11.245s-10.905,5.927-16.948,6.537c-7.14.725-14.145-1.924-20.835-4.49a59.609,59.609,0,0,1-10.475-4.875c-7.056-4.49-11.617-11.444-15.678-18.9q.148-9.026.3-18.058c23.735-.462,47.162-2.29,70.794-.449,2.418.192,5.036.481,6.793,2.143a10.321,10.321,0,0,1,2.418,4.965A118.863,118.863,0,0,1,803.435,336.685Z" transform="translate(-291.896 -194.721)" opacity="0.1"/>
    <path id="Path_114" data-name="Path 114" d="M801.336,242.27c1.706-1.283,3.727-2.143,5.376-3.515a18.322,18.322,0,0,0,4.086-5.376c2.919-5.247,5.093-11.155,4.625-17.14s-4.067-12-9.751-13.933c3.573-11.033.642-23-2.348-34.21a50.463,50.463,0,0,0-3.656-10.578c-3.47-6.639-9.693-11.38-16.037-15.331-7.306-4.548-15.216-8.416-23.735-9.68-8.82-1.283-17.878.263-26.269,3.272-4.49,1.617-8.981,3.721-12.329,7.159-2.444,2.508-4.176,5.619-6.331,8.384-3.49,4.49-8.108,8.076-10.995,12.964-3.207,5.421-3.945,11.887-4.631,18.148l-2.284,20.79c-1.514-2.11-4.792-2.3-7.056-.975s-3.56,3.772-4.4,6.229a25.48,25.48,0,0,0,2.566,21.637c1.777,2.778,4.08,5.177,6.113,7.775,10.341,13.176,14.3,31.85,28.443,40.837A59.612,59.612,0,0,0,733.2,283.6c6.691,2.566,13.7,5.241,20.835,4.49,6.068-.641,11.6-3.612,16.948-6.543,6.549-3.586,19.193-7.4,22.022-14.959C796.159,258.352,793.151,248.467,801.336,242.27Z" transform="translate(-279.142 -132.04)" fill="#d0d2d5"/>
    <path id="Path_115" data-name="Path 115" d="M758.589,309.456a34.238,34.238,0,0,1,5.658-3.849,12.124,12.124,0,0,1,9.09-.385,5.239,5.239,0,0,0,1.847.475,6.413,6.413,0,0,0,2.322-.828c2.842-1.238,6.145-.34,8.981.911a78.435,78.435,0,0,1,10.8,6.2,25.189,25.189,0,0,0-3.971,1.629c-1.469.757-2.867,1.661-4.336,2.425a32.773,32.773,0,0,1-11.855,3.252,27.548,27.548,0,0,1-3.329.16c-4.535-.09-8.885-1.726-13.125-3.342l-3.746-1.411-1.867-.706c-.379-.148-1.578-.372-1.79-.7-.443-.641,1.584-1.386,2.162-1.732C756.524,310.905,757.563,310.2,758.589,309.456Z" transform="translate(-303.853 -193.786)" opacity="0.1"/>
    <path id="Path_116" data-name="Path 116" d="M815.791,232.4a14.3,14.3,0,0,1,1.507-.577,13.882,13.882,0,0,1,16.1,6.126c-.468.1-.872-.3-1.232-.609a13.386,13.386,0,0,0-3.291-1.79c-.776-.366-1.527-.789-2.316-1.123a14.414,14.414,0,0,0-8.814-.52c-2.8.642-5.132,2.053-7.7,3.278,0-.93,1.745-2.207,2.425-2.765a14.557,14.557,0,0,1,3.316-2.021Z" transform="translate(-324.234 -167.577)" opacity="0.1"/>
    <path id="Path_117" data-name="Path 117" d="M824.608,246.55c2.784.09,5.773-.218,7.942-1.924a12.21,12.21,0,0,0-3.9.641,16.166,16.166,0,0,1-7.185.058c-1.18-.263-2.335-.641-3.535-.853a5.549,5.549,0,0,0-2.97.135c.308.892,3.586,1.225,4.49,1.392A35.019,35.019,0,0,0,824.608,246.55Z" transform="translate(-325.995 -172.294)" opacity="0.1"/>
    <path id="Path_118" data-name="Path 118" d="M745.059,232.4a13.853,13.853,0,0,0-17.609,5.549c.468.1.872-.3,1.238-.609a13.339,13.339,0,0,1,3.284-1.783c.776-.366,1.527-.789,2.316-1.123a14.434,14.434,0,0,1,8.82-.52c2.8.641,5.132,2.053,7.666,3.278,0-.93-1.751-2.207-2.431-2.765a14.415,14.415,0,0,0-3.284-2.027Z" transform="translate(-294.621 -167.577)" opacity="0.1"/>
    <path id="Path_119" data-name="Path 119" d="M739.445,246.55c-2.778.09-5.773-.218-7.935-1.924a12.211,12.211,0,0,1,3.9.641,16.139,16.139,0,0,0,7.178.058c1.187-.263,2.341-.641,3.535-.853a5.581,5.581,0,0,1,2.976.135c-.308.892-3.592,1.225-4.49,1.392A35.192,35.192,0,0,1,739.445,246.55Z" transform="translate(-296.076 -172.294)" opacity="0.1"/>
    <ellipse id="Ellipse_14" data-name="Ellipse 14" cx="4.08" cy="1.636" rx="4.08" ry="1.636" transform="translate(458.142 96.753)" opacity="0.1"/>
    <ellipse id="Ellipse_15" data-name="Ellipse 15" cx="4.08" cy="1.636" rx="4.08" ry="1.636" transform="translate(476.11 96.753)" opacity="0.1"/>
    <path id="Path_120" data-name="Path 120" d="M652.27,470.391a46.969,46.969,0,0,1,16.159-2.643c5.376.071,10.693,1.065,16.037,1.623,8.429.885,16.922.686,25.4.488" transform="translate(-267.667 -252.392)" opacity="0.1"/>
    <path id="Path_121" data-name="Path 121" d="M871.646,470.391a46.97,46.97,0,0,0-16.159-2.643c-5.376.071-10.693,1.065-16.037,1.623-8.429.885-16.922.686-25.39.488" transform="translate(-325.672 -252.392)" opacity="0.1"/>
    <path id="Path_122" data-name="Path 122" d="M758.57,518c2.111,5.773,9.225,8.16,12.336,13.471a22.731,22.731,0,0,1,2.123,5.908l1.655,6.415a37.879,37.879,0,0,1-1.1-9.584,12.321,12.321,0,0,1,3.772-8.634,18.6,18.6,0,0,1,4.375-2.566l9.834-4.664" transform="translate(-305.778 -270.41)" opacity="0.1"/>
    <g id="Group_36" data-name="Group 36" transform="translate(190.202 36.073)" opacity="0.1">
      <path id="Path_123" data-name="Path 123" d="M360.074,306.592c-3.1,3.047-3.207,7.9-4.048,12.188-1.283,6.325-2.277,9.872-6.806,13.747a4.592,4.592,0,0,0,3.041,1.924,6.908,6.908,0,0,0,2.63-.712l5.4-2.207c5.5-4.253,6.556-7.845,7.922-14.658.853-4.266.943-9.115,4.048-12.188a8.2,8.2,0,0,1,.86-.725C368.246,303.7,363.358,303.372,360.074,306.592Z" transform="translate(-349.22 -229.69)"/>
      <path id="Path_124" data-name="Path 124" d="M485.452,233a75.29,75.29,0,0,1,9.423-4.176c-.847-2.6-6.53-.526-6.819-3.259a2.938,2.938,0,0,1,.744-1.924l5.542-7.9c-5.267,1.347-10.584-2.3-13.9-6.607s-5.542-9.475-9.436-13.272c-7.794-7.589-19.944-7.794-30.791-7.525l-20.1.494c-9.026.225-18.141.468-26.9,2.611,4.882-.436,9.808-.565,14.709-.686l20.1-.494c10.873-.269,23.023-.064,30.791,7.525,3.894,3.8,6.12,8.981,9.436,13.272s8.634,7.954,13.9,6.607l-5.542,7.9a2.938,2.938,0,0,0-.744,1.924c.289,2.733,5.972.641,6.819,3.259a75.288,75.288,0,0,0-9.423,4.176,3.483,3.483,0,0,0,2.97,1.976,106.393,106.393,0,0,1-13.606,5.773h1.026c8.724-.064,16.909-3.939,24.768-7.73A3.483,3.483,0,0,1,485.452,233Z" transform="translate(-364.995 -188.267)"/>
      <path id="Path_125" data-name="Path 125" d="M424.253,272.223c-4.048.18-8.429.77-11.284,3.637-3.887,3.894-3.676,10.738-7.845,14.331a6.09,6.09,0,0,1-.565.443c4.683.237,9.411.52,12.753-2.367,4.17-3.592,3.958-10.437,7.845-14.331a9.964,9.964,0,0,1,2.483-1.8C426.511,272.153,425.37,272.172,424.253,272.223Z" transform="translate(-369.06 -218.337)"/>
    </g>
  </g>
</svg>
