

<svg xmlns="http://www.w3.org/2000/svg" width="379.552" height="478.597" viewBox="0 0 379.552 478.597">
  <g id="post" transform="translate(0 -3.472)">
    <path id="Path_57" data-name="Path 57" d="M677.272,335.985H597.766a11.444,11.444,0,0,1-9.039-4.381h0a11.587,11.587,0,0,1-2.17-9.938,201.036,201.036,0,0,0,0-93.37,11.59,11.59,0,0,1,2.17-9.938,11.444,11.444,0,0,1,9.039-4.381h79.505a11.589,11.589,0,0,1,11.405,9.727,336.962,336.962,0,0,1,0,102.554,11.589,11.589,0,0,1-11.4,9.727Z" transform="translate(-460.584 -204.795)" fill="#e6e6e6"/>
    <path id="Path_58" data-name="Path 58" d="M597.784,219.978a5.5,5.5,0,0,0-4.342,2.1,5.643,5.643,0,0,0-1.051,4.839,207.041,207.041,0,0,1,0,96.16,5.639,5.639,0,0,0,1.05,4.838h0a5.5,5.5,0,0,0,4.341,2.1h79.505a5.566,5.566,0,0,0,5.492-4.653,331,331,0,0,0,0-100.736,5.566,5.566,0,0,0-5.493-4.653Z" transform="translate(-460.601 -204.813)" fill="#fff"/>
    <path id="Path_59" data-name="Path 59" d="M660,248.787H618.278A5.989,5.989,0,0,1,612.3,242.8v-2.338a5.988,5.988,0,0,1,5.982-5.982H660a5.989,5.989,0,0,1,5.982,5.982V242.8A5.989,5.989,0,0,1,660,248.787Z" transform="translate(-460.661 -204.856)" fill="#e6e6e6"/>
    <path id="Path_60" data-name="Path 60" d="M660,278.412H618.278a5.988,5.988,0,0,1-5.982-5.982v-2.337a5.989,5.989,0,0,1,5.982-5.982H660a5.989,5.989,0,0,1,5.982,5.982v2.338A5.989,5.989,0,0,1,660,278.412Z" transform="translate(-460.661 -204.944)" fill="#e6e6e6"/>
    <path id="Path_61" data-name="Path 61" d="M660,308.038H618.278a5.989,5.989,0,0,1-5.982-5.982v-2.338a5.988,5.988,0,0,1,5.982-5.982H660a5.989,5.989,0,0,1,5.982,5.982v2.338A5.989,5.989,0,0,1,660,308.038Z" transform="translate(-460.661 -205.031)" fill="#e6e6e6"/>
    <path id="Path_62" data-name="Path 62" d="M827.272,411.985H747.766a11.444,11.444,0,0,1-9.039-4.381h0a11.587,11.587,0,0,1-2.17-9.938,201.035,201.035,0,0,0,0-93.37,11.59,11.59,0,0,1,2.17-9.938,11.443,11.443,0,0,1,9.039-4.381h79.505a11.589,11.589,0,0,1,11.405,9.727,336.959,336.959,0,0,1,0,102.554,11.589,11.589,0,0,1-11.4,9.727Z" transform="translate(-463.049 -248.484)" fill="#e6e6e6"/>
    <path id="Path_63" data-name="Path 63" d="M747.783,295.978a5.5,5.5,0,0,0-4.342,2.1,5.643,5.643,0,0,0-1.051,4.839,207.041,207.041,0,0,1,0,96.16,5.639,5.639,0,0,0,1.05,4.838h0a5.5,5.5,0,0,0,4.341,2.1h79.505a5.566,5.566,0,0,0,5.492-4.653,331,331,0,0,0,0-100.736,5.566,5.566,0,0,0-5.493-4.653Z" transform="translate(-463.067 -248.502)" fill="#fff"/>
    <path id="Path_64" data-name="Path 64" d="M668.27,498.482H588.764a11.94,11.94,0,0,1-9.43-4.57,12.083,12.083,0,0,1-2.263-10.363,200.536,200.536,0,0,0,0-93.137,12.085,12.085,0,0,1,2.264-10.363,11.94,11.94,0,0,1,9.43-4.57H668.27a12.091,12.091,0,0,1,11.9,10.149,337.456,337.456,0,0,1,0,102.706,12.091,12.091,0,0,1-11.9,10.149Z" transform="translate(-357.733 -208.745)" fill="#f2f2f2"/>
    <path id="Path_65" data-name="Path 65" d="M810,339.787H768.278A5.989,5.989,0,0,1,762.3,333.8v-2.338a5.989,5.989,0,0,1,5.982-5.982H810a5.989,5.989,0,0,1,5.982,5.982V333.8A5.988,5.988,0,0,1,810,339.787Z" transform="translate(-463.126 -248.589)" fill="#e6e6e6"/>
    <path id="Path_66" data-name="Path 66" d="M810,369.412H768.278a5.988,5.988,0,0,1-5.982-5.982v-2.337a5.988,5.988,0,0,1,5.982-5.982H810a5.989,5.989,0,0,1,5.982,5.982v2.338A5.988,5.988,0,0,1,810,369.412Z" transform="translate(-463.126 -248.677)" fill="#e6e6e6"/>
    <circle id="Ellipse_11" data-name="Ellipse 11" cx="22.932" cy="22.932" r="22.932" transform="translate(248.075 204.892)" fill="#fff"/>
    <path id="Path_67" data-name="Path 67" d="M639.82,433.717h-7.976v-7.976a2.991,2.991,0,0,0-5.982,0v7.976h-7.976a2.991,2.991,0,0,0,0,5.982h7.976v7.976a2.991,2.991,0,0,0,5.982,0V439.7h7.976a2.991,2.991,0,0,0,0-5.982Z" transform="translate(-357.846 -208.885)" fill="#e6e6e6"/>
    <path id="Path_68" data-name="Path 68" d="M657.756,225.2H615.881a4.492,4.492,0,0,1-4.487-4.487v-7.976a4.492,4.492,0,0,1,4.487-4.487h41.876a4.492,4.492,0,0,1,4.487,4.487v7.976a4.492,4.492,0,0,1-4.487,4.487Z" transform="translate(-460.658 -204.778)" fill="#ccc"/>
    <path id="Path_69" data-name="Path 69" d="M809.756,302.2H767.881a4.492,4.492,0,0,1-4.487-4.487v-7.976a4.492,4.492,0,0,1,4.487-4.487h41.876a4.492,4.492,0,0,1,4.487,4.487v7.976a4.492,4.492,0,0,1-4.487,4.487Z" transform="translate(-463.129 -248.47)" fill="#ccc"/>
    <path id="Path_70" data-name="Path 70" d="M88.6,470.921H100.82l3.822-47.148H88.594Z" transform="translate(-0.262 -1.254)" fill="#ffb8b8"/>
    <path id="Path_71" data-name="Path 71" d="M442.552,675.308h24.073a15.341,15.341,0,0,1,15.341,15.341v.5H442.553Z" transform="translate(-357.336 -209.632)" fill="#2f2e41"/>
    <path id="Path_72" data-name="Path 72" d="M22.6,470.921H34.82l5.816-47.148H22.594Z" transform="translate(-0.067 -1.254)" fill="#ffb8b8"/>
    <path id="Path_73" data-name="Path 73" d="M376.552,675.308h24.073a15.341,15.341,0,0,1,15.341,15.341v.5H376.553Z" transform="translate(-357.141 -209.632)" fill="#2f2e41"/>
    <path id="Path_74" data-name="Path 74" d="M381.825,663.837a4.967,4.967,0,0,1-3.364-1.314h0A4.946,4.946,0,0,1,376.849,659l-4.9-175.692,69.6,17.4,21.476,64.426a70.252,70.252,0,0,1,3.535,25.748L463.9,653.33a4.981,4.981,0,0,1-4.98,4.745H447.242a5.009,5.009,0,0,1-4.94-4.317l-8.344-68.937a37.712,37.712,0,0,0-5.515-15.119l-16.421-26a1,1,0,0,0-1.832.409L397.3,658.859a4.979,4.979,0,0,1-4.673,4.383l-10.521.585C382.014,663.833,381.919,663.837,381.825,663.837Z" transform="translate(-357.127 -209.064)" fill="#2f2e41"/>
    <circle id="Ellipse_12" data-name="Ellipse 12" cx="24.488" cy="24.488" r="24.488" transform="translate(48.353 111.514)" fill="#ffb8b8"/>
    <path id="Path_75" data-name="Path 75" d="M441.2,507.524a5.058,5.058,0,0,1-1.249-.159h0l-69.059-17.707a4.984,4.984,0,0,1-3.652-5.8l15.86-85.437a31.121,31.121,0,0,1,18.2-22.473,30.024,30.024,0,0,1,28.182,2.069c.967.6,1.941,1.261,2.894,1.955a30.869,30.869,0,0,1,12.542,24.457l1.261,98.038a4.992,4.992,0,0,1-4.973,5.056Z" transform="translate(-357.113 -208.739)" fill="#6c63ff"/>
    <path id="Path_76" data-name="Path 76" d="M378.027,508.781a10.026,10.026,0,0,1,4.2-14.788l-3.072-35.5,16.278,8.822.421,32.355a10.08,10.08,0,0,1-17.829,9.107Z" transform="translate(-357.14 -208.991)" fill="#ffb8b8"/>
    <path id="Path_77" data-name="Path 77" d="M383.821,489.053a5.493,5.493,0,0,1-5.322-4.147l-8-31.789a47.23,47.23,0,0,1,3.75-33.037L391.009,387.3a15.5,15.5,0,0,1,18.752-10.986,15.31,15.31,0,0,1,9.447,7.08,15.521,15.521,0,0,1,1.649,11.878L397,448.614l.283,31.941a5.5,5.5,0,0,1-3.574,5.189l-7.984,2.965a5.464,5.464,0,0,1-1.905.344Z" transform="translate(-357.119 -208.746)" fill="#6c63ff"/>
    <path id="Path_78" data-name="Path 78" d="M498.29,495.716a10.026,10.026,0,0,1-8.468-12.831l-28.908-20.827,17.305-6.582,24.8,20.787a10.08,10.08,0,0,1-4.728,19.454Z" transform="translate(-357.39 -208.982)" fill="#ffb8b8"/>
    <path id="Path_79" data-name="Path 79" d="M483.012,480.29a5.507,5.507,0,0,1-2.455-.58l-29.312-14.674a47.241,47.241,0,0,1-22.594-24.393l-13.916-34.09a15.5,15.5,0,0,1,3.906-21.381,15.306,15.306,0,0,1,11.556-2.536,15.524,15.524,0,0,1,10.051,6.493l24.871,52.883,24.394,20.622a5.5,5.5,0,0,1,1.6,6.094l-2.961,7.985a5.485,5.485,0,0,1-5.142,3.577Z" transform="translate(-357.246 -208.765)" fill="#6c63ff"/>
    <path id="Path_80" data-name="Path 80" d="M424.918,369.431c1.3.569,3.966-9.8,2.772-11.872-1.775-3.084-1.67-3.062-2.848-5.1s-1.442-4.833.084-6.628,5.057-1.557,5.753.694c-.448-4.275,3.781-7.712,7.969-8.677s8.607-.366,12.819-1.226c4.888-1,9.974-5.095,8.023-10.47a7.571,7.571,0,0,0-1.477-2.427c-2.253-2.533-5.405-3.615-8.487-4.661-6.411-2.176-13-4.379-19.763-4.139a28.712,28.712,0,0,0-25.37,18.554,26.078,26.078,0,0,0-1.08,4.013c-2.322,12.487,4.929,24.8,16.707,29.559Z" transform="translate(-357.219 -208.566)" fill="#2f2e41"/>
    <path id="Path_81" data-name="Path 81" d="M38.9,273.142l.555-32.832,17.391-34.967L42.888,241.236Z" transform="translate(-0.115 -0.608)" opacity="0.2"/>
    <path id="Path_82" data-name="Path 82" d="M553.921,563.8,480.5,533.3a11.444,11.444,0,0,1-6.666-7.513h0a11.587,11.587,0,0,1,1.809-10.01,201.035,201.035,0,0,0,35.824-86.224,11.59,11.59,0,0,1,5.817-8.344,11.444,11.444,0,0,1,10.028-.577l73.42,30.5a11.589,11.589,0,0,1,6.8,13.358,336.96,336.96,0,0,1-39.348,94.7,11.589,11.589,0,0,1-14.265,4.606Z" transform="translate(-357.427 -208.876)" fill="#e6e6e6"/>
    <path id="Path_83" data-name="Path 83" d="M525.036,426.173a5.5,5.5,0,0,0-4.816.275,5.643,5.643,0,0,0-2.827,4.066,207.042,207.042,0,0,1-36.895,88.8,5.64,5.64,0,0,0-.887,4.871h0a5.5,5.5,0,0,0,3.2,3.607l73.42,30.5a5.566,5.566,0,0,0,6.857-2.19,331.007,331.007,0,0,0,38.651-93.026,5.566,5.566,0,0,0-3.287-6.4Z" transform="translate(-357.445 -208.894)" fill="#fff"/>
    <path id="Path_84" data-name="Path 84" d="M564.255,494.193l-38.528-16.008a5.989,5.989,0,0,1-3.229-7.819l.9-2.159a5.989,5.989,0,0,1,7.819-3.229l38.528,16.008a5.989,5.989,0,0,1,3.229,7.819l-.9,2.159a5.989,5.989,0,0,1-7.819,3.229Z" transform="translate(-357.571 -209.008)" fill="#6c63ff"/>
    <path id="Path_85" data-name="Path 85" d="M552.888,521.552,514.36,505.544a5.989,5.989,0,0,1-3.229-7.819l.9-2.159a5.989,5.989,0,0,1,7.819-3.229l38.528,16.008a5.989,5.989,0,0,1,3.229,7.819l-.9,2.159A5.989,5.989,0,0,1,552.888,521.552Z" transform="translate(-357.538 -209.089)" fill="#6c63ff"/>
    <path id="Path_86" data-name="Path 86" d="M579.735,455.737a4.476,4.476,0,0,1-1.682-.33l-38.823-15.7a4.492,4.492,0,0,1-2.478-5.841l2.99-7.4A4.487,4.487,0,0,1,545.584,424l38.823,15.7a4.492,4.492,0,0,1,2.478,5.841l-2.99,7.4A4.5,4.5,0,0,1,579.735,455.737Z" transform="translate(-357.614 -208.888)" fill="#ccc"/>
    <path id="Path_87" data-name="Path 87" d="M497.666,691.744H358.08a1,1,0,1,1,0-1.994H497.666a1,1,0,1,1,0,1.994Z" transform="translate(-357.083 -209.675)" fill="#ccc"/>
  </g>
</svg>
