<svg xmlns="http://www.w3.org/2000/svg" width="857.543" height="515.087" viewBox="0 0 857.543 515.087">
  <g id="deleteadmin" transform="translate(-62.761 0)">
    <path id="Path_3" data-name="Path 3" d="M311.74,705.648l-.456-.133a73.682,73.682,0,0,1,18.551-30.863l.319.352A73.183,73.183,0,0,0,311.74,705.648Z" transform="translate(58.152 -191.751)" fill="#fff"/>
    <path id="Path_4" data-name="Path 4" d="M215.073,705.615l-.471-.065a51.732,51.732,0,0,0-4.653-30.238,41.634,41.634,0,0,0-7.34-10.716l.329-.343a42.155,42.155,0,0,1,7.441,10.848A52.206,52.206,0,0,1,215.073,705.615Z" transform="translate(-139.848 -192.457)" fill="#fff"/>
    <path id="Path_8" data-name="Path 8" d="M923.908,706.923H751.692l-.033-.965-8.223-235.18H932.163Zm-170.284-2H921.976l8.117-232.145H745.506Z" transform="translate(-139.848 -192.457)" fill="#3f3d56"/>
    <g id="Group_1" data-name="Group 1">
      <rect id="Rectangle_17" data-name="Rectangle 17" width="13.099" height="162.097" transform="translate(741.291 335.837) rotate(39)" fill="#f52121"/>
      <rect id="Rectangle_19" data-name="Rectangle 19" width="13.099" height="162.097" transform="translate(637.312 353.581) rotate(-48)" fill="#f52121"/>
    </g>
    <path id="Path_126" data-name="Path 126" d="M1041.6,539.839l-.846-.534L826.838,404.122l18.556-29.362.846.534,213.913,135.183ZM829.6,403.5l211.377,133.58,16.418-25.979L846.019,377.52Z" transform="translate(-139.848 -192.457)" fill="#3f3d56"/>
    <path id="Path_10" data-name="Path 10" d="M989.95,393.226a38.459,38.459,0,0,0-58.62,38.07l10.2,6.446a30.344,30.344,0,1,1,28.98,18.321l10.2,6.446a38.459,38.459,0,0,0,9.249-69.283Z" transform="translate(-139.848 -192.457)" fill="#3f3d56"/>
    <rect id="Rectangle_21" data-name="Rectangle 21" width="683.818" height="2" transform="translate(198 513.087)" fill="#3f3d56"/>
    <g id="Group_6" data-name="Group 6">
      <path id="Path_111" data-name="Path 111" d="M536.885,691.9H522.321l-6.932-56.174h21.5Z" transform="translate(-139.848 -192.457)" fill="#feb8b8"/>
      <path id="Path_112" data-name="Path 112" d="M494.234,705.418h45.771V687.734H511.673a17.439,17.439,0,0,0-17.439,17.439h0Z" transform="translate(-139.848 -192.457)" fill="#2f2e41"/>
      <path id="Path_113" data-name="Path 113" d="M531.766,604.851,541.812,615.4l45.452-33.727-14.826-15.563Z" transform="translate(-139.848 -192.457)" fill="#feb8b8"/>
      <path id="Path_114" data-name="Path 114" d="M552.161,620.227l-19.549-20.512-12.8,12.2,31.582,33.138.177-.169a17.441,17.441,0,0,0,.593-24.659Z" transform="translate(-139.848 -192.457)" fill="#2f2e41"/>
      <path id="Path_115" data-name="Path 115" d="M430.4,450.953a11.946,11.946,0,0,1,5.715-17.4L493.29,287.826l22.288,13.345-63.518,139.8a12.01,12.01,0,0,1-21.664,9.982Z" transform="translate(-139.848 -192.457)" fill="#feb8b8"/>
      <path id="Path_116" data-name="Path 116" d="M647.428,461.4a11.945,11.945,0,0,1-10.727-14.85L552.347,314.679l23.891-10.2L652.074,438a12.01,12.01,0,0,1-4.646,23.4Z" transform="translate(-139.848 -192.457)" fill="#feb8b8"/>
      <path id="Path_117" data-name="Path 117" d="M493.853,436.361l14.931,221.913,35.682-3.148L551.812,491.4l19.94,70.314,43.028,3.148-17.031-139Z" transform="translate(-139.848 -192.457)" fill="#2f2e41"/>
      <path id="Path_118" data-name="Path 118" d="M578.049,551.224l-6.3,10.495-44.073,30.434,31.484,16.792s60.869-33.583,55.622-44.078Z" transform="translate(-139.848 -192.457)" fill="#2f2e41"/>
      <path id="Path_119" data-name="Path 119" d="M462.607,346.577l12.421-35a62.494,62.494,0,0,1,32.332-35.668h0a89.427,89.427,0,0,1,52.484-2.873l4.52,1.122a87.364,87.364,0,0,1,33.128,16c7.654,6.034,14.54,13.674,15.153,21.892a.243.243,0,0,0,.015.051c2.12,9.292,3.169,57.567,3.169,57.567h-18.7l2.958,65.067-.239-.471s-107.856,20.411-107.856,9.916V377.012l-2.211-24.32Z" transform="translate(-139.848 -192.457)" fill="#e57c7c"/>
      <circle id="Ellipse_12" data-name="Ellipse 12" cx="29.889" cy="29.889" r="29.889" transform="translate(393.543 11.704)" fill="#feb8b8"/>
      <path id="Path_120" data-name="Path 120" d="M567.757,220.645l23.208.93c2.92-.009,6.108-.112,8.332-2,3.35-2.849,2.789-8.225.995-12.241-5-11.182-16.153-15.188-28.4-14.859s-25.08,4.48-31.675,14.8-8.377,23.352-5.893,35.344a38.534,38.534,0,0,1,31.508-21.97Z" transform="translate(-139.848 -192.457)" fill="#2f2e41"/>
    </g>
    <g id="Group_4" data-name="Group 4">
      <path id="Path_81" data-name="Path 81" d="M705.571,513l-84-58.873a3.607,3.607,0,0,1-.882-5.015l65.932-94.072a3.607,3.607,0,0,1,5.015-.882l84,58.873a3.607,3.607,0,0,1,.882,5.015l-65.93,94.07a3.607,3.607,0,0,1-5.017.884Z" transform="translate(-139.848 -192.457)" fill="#f52121"/>
      <path id="Path_82" data-name="Path 82" d="M724.462,449.12l-49.291-34.546a5.3,5.3,0,0,1,6.084-8.681l49.291,34.546a5.3,5.3,0,0,1-6.084,8.681Z" transform="translate(-139.848 -192.457)" fill="#fff"/>
      <path id="Path_83" data-name="Path 83" d="M713.15,465.261l-49.291-34.546a5.3,5.3,0,0,1,6.084-8.681l49.291,34.546a5.3,5.3,0,1,1-6.084,8.681Z" transform="translate(-139.848 -192.457)" fill="#fff"/>
      <path id="Path_84" data-name="Path 84" d="M701.716,481.576,652.425,447.03a5.3,5.3,0,0,1,6.084-8.681L707.8,472.894a5.3,5.3,0,1,1-6.084,8.681Z" transform="translate(-139.848 -192.457)" fill="#fff"/>
      <path id="Path_85" data-name="Path 85" d="M724.324,417.19l-19.092-13.38a5.3,5.3,0,0,1,6.084-8.681l19.091,13.381a5.3,5.3,0,1,1-6.084,8.681Z" transform="translate(-139.848 -192.457)" fill="#fff"/>
    </g>
  </g>
</svg>
