<svg xmlns="http://www.w3.org/2000/svg" width="473.422" height="395.279" viewBox="0 0 473.422 395.279">
  <g id="editpost" transform="translate(0 0.042)">
    <path id="Path_130" data-name="Path 130" d="M651.871,628.043H364.5l.13-30.468c.328-77.1,61.864-140.622,138.949-141.933q1.249-.021,2.5-.021h0a145.366,145.366,0,0,1,50.81,9.128c54.544,20.313,91.154,71.922,93.589,130.074Z" transform="translate(-267.327 -254.68)" fill="#1c465a"/>
    <rect id="Rectangle_42" data-name="Rectangle 42" width="473.422" height="1.185" transform="translate(0 373.363)" fill="#2f2e41"/>
    <path id="Path_131" data-name="Path 131" d="M398.287,385.124l12.662,9.209L423.612,502.54h29.929l-10.36-123.172L401.74,363.252Z" transform="translate(-162.295 -148.036)" fill="#2f2e41"/>
    <path id="Path_132" data-name="Path 132" d="M509.154,440.928s-3.453,39.139,10.36,40.29,66.766-11.511,66.766-11.511l25.325,89.789,37.988-19.569s-23.023-101.3-36.836-107.056S552.9,415.6,552.9,415.6l-33.383,5.756Z" transform="translate(-326.115 -238.373)" fill="#2f2e41"/>
    <path id="Path_133" data-name="Path 133" d="M646.627,710.906s-6.907,26.476-2.3,28.778a83.257,83.257,0,0,1,8.058,4.6v-4.6s5.756,5.756,5.756,10.36,31.081,5.756,31.081,0-1.151-12.662-6.907-16.116-12.662-23.023-12.662-23.023Z" transform="translate(-380.706 -358.704)" fill="#2f2e41"/>
    <path id="Path_134" data-name="Path 134" d="M505.14,507.665l2.3,21.872L515.5,543.35l19.569-21.872L520.1,497.305Z" transform="translate(-205.835 -202.66)" fill="#2f2e41"/>
    <path id="Path_135" data-name="Path 135" d="M724.058,659.149s4.239-14.493,8.451-13S752.836,662.6,752.836,662.6l11.512,6.907s23.023,2.3,16.116,9.209-32.232,16.116-43.743,11.511-13.814-5.756-13.814-5.756l-3.453,2.3-13.814-3.453,2.3-24.174S711.4,669.509,724.058,659.149Z" transform="translate(-406.335 -332.272)" fill="#2f2e41"/>
    <circle id="Ellipse_16" data-name="Ellipse 16" cx="26.476" cy="26.476" r="26.476" transform="translate(195.702 5.71)" fill="#9f616a"/>
    <path id="Path_136" data-name="Path 136" d="M542.451,191.87s2.3,24.174-4.6,24.174,1.151,29.93,19.569,29.93,25.325-35.685,25.325-35.685-12.663-4.6-10.36-19.569S542.451,191.87,542.451,191.87Z" transform="translate(-336.964 -144.144)" fill="#9f616a"/>
    <path id="Path_137" data-name="Path 137" d="M517.252,228.988l-9.677,4.146-26.263,11.112a5.332,5.332,0,0,0-3.221,5.507l9.915,88.135s-10.36,21.872,5.756,23.023l2.3,8.058L514.482,347.1l69.068-2.3,1.151-111.66-31.6-12.488S548.8,244.412,517.252,228.988Z" transform="translate(-313.599 -158.933)" fill="#3f3d56"/>
    <path id="Path_138" data-name="Path 138" d="M476.024,265.079l-4.254-1.215a3.507,3.507,0,0,0-4.427,2.82l-11.289,70.81a24.591,24.591,0,0,0,2.4,15.356c3.488,6.6,10.732,12.594,25.625,5.471l10.36-74.824Z" transform="translate(-304.495 -176.488)" fill="#3f3d56"/>
    <path id="Path_139" data-name="Path 139" d="M635.7,238.809l13.814,2.3L687.5,294.064l3.453,9.209,21.872-6.907s-1.151,10.36,10.36,9.209c0,0-13.814,37.988-42.592,26.476s-37.987-46.045-37.987-46.045Z" transform="translate(-377.836 -166.333)" fill="#3f3d56"/>
    <path id="Path_140" data-name="Path 140" d="M425.191,146.953l-51.8-20.721-2.3,6.907,24.174,20.72Z" transform="translate(-151.212 -51.454)" fill="#ccc"/>
    <path id="Path_141" data-name="Path 141" d="M537.417,150.336c.978-.261,1.122-1.559,1.154-2.571.176-5.417,3.438-10.976,8.623-12.553a14.5,14.5,0,0,1,6.111-.336,23.145,23.145,0,0,1,8.275,2.761,12.912,12.912,0,0,0,4.207,1.906c1.012.153,5.392,1.427,6.4,1.606,2.215.394,4.273,2.376,6.4,1.638,2.033-.706,2.483-3.338,2.533-5.49.112-4.9-3.609-11.687-6.887-15.333-2.487-2.767-6.233-4.045-9.894-4.709a65.868,65.868,0,0,0-12.939-.787c-5.859.1-11.881.557-17.164,3.092s-9.721,7.581-9.974,13.435c-.053,1.22.073,2.444-.029,3.661-.25,2.967-1.826,5.648-2.565,8.532a15.613,15.613,0,0,0,2.18,12.477c1.961,2.886,9.8,5.505,9.689,8.992,1.417-1.468-1.925-2.946-.508-4.415a3.491,3.491,0,0,0,1.038-4.266l-1.5-5.87a5.3,5.3,0,0,1-.13-3.267C534.043,144.853,535.787,150.771,537.417,150.336Z" transform="translate(-331.18 -116.462)" fill="#2f2e41"/>
    <path id="Path_142" data-name="Path 142" d="M356.047,124.431l-21.872,85.184,85.184,29.93,49.5-41.441,31.081-93.242L449.288,141.7Z" transform="translate(-136.17 -42.746)" fill="#f2f2f2"/>
    <rect id="Rectangle_43" data-name="Rectangle 43" width="1.151" height="85.719" transform="matrix(0.255, -0.967, 0.967, 0.255, 223.757, 92.026)" fill="#e6e6e6"/>
    <rect id="Rectangle_44" data-name="Rectangle 44" width="1.151" height="85.719" transform="matrix(0.255, -0.967, 0.967, 0.255, 221.454, 97.781)" fill="#e6e6e6"/>
    <rect id="Rectangle_45" data-name="Rectangle 45" width="1.151" height="85.719" transform="matrix(0.255, -0.967, 0.967, 0.255, 220.303, 103.537)" fill="#e6e6e6"/>
    <rect id="Rectangle_46" data-name="Rectangle 46" width="1.151" height="85.719" transform="matrix(0.255, -0.967, 0.967, 0.255, 219.152, 109.293)" fill="#e6e6e6"/>
    <rect id="Rectangle_47" data-name="Rectangle 47" width="1.151" height="85.719" transform="matrix(0.255, -0.967, 0.967, 0.255, 218.001, 115.048)" fill="#e6e6e6"/>
    <rect id="Rectangle_48" data-name="Rectangle 48" width="1.151" height="85.719" transform="matrix(0.255, -0.967, 0.967, 0.255, 216.85, 120.803)" fill="#e6e6e6"/>
    <rect id="Rectangle_49" data-name="Rectangle 49" width="1.151" height="85.719" transform="matrix(0.255, -0.967, 0.967, 0.255, 215.698, 126.559)" fill="#e6e6e6"/>
    <rect id="Rectangle_50" data-name="Rectangle 50" width="1.151" height="85.719" transform="matrix(0.255, -0.967, 0.967, 0.255, 214.547, 132.315)" fill="#e6e6e6"/>
    <rect id="Rectangle_51" data-name="Rectangle 51" width="1.151" height="85.719" transform="matrix(0.255, -0.967, 0.967, 0.255, 213.396, 138.071)" fill="#e6e6e6"/>
    <path id="Path_143" data-name="Path 143" d="M512.35,354.137s25.89-15.464,37.4-5.1-33.383,25.325-33.383,25.325Z" transform="translate(-327.573 -209.792)" fill="#9f616a"/>
    <path id="Path_144" data-name="Path 144" d="M463.6,364.153l33.383-12.662s-5.756,21.872,5.756,23.023l-16.116,19.57S454.387,394.083,463.6,364.153Z" transform="translate(-307.033 -212.249)" fill="#3f3d56"/>
    <path id="Path_145" data-name="Path 145" d="M405.284,255.6l44.3,14.93L439.1,293.383l-44.3-14.929Z" transform="translate(-160.874 -104.17)" fill="#e6e6e6"/>
    <path id="Path_146" data-name="Path 146" d="M537.842,156.414l33.383-25.325-9.209,31.081-34.534,25.325Z" transform="translate(-214.939 -53.433)" fill="#ccc"/>
    <rect id="Rectangle_52" data-name="Rectangle 52" width="41.902" height="1.151" transform="matrix(0.797, -0.604, 0.604, 0.797, 306.441, 145.112)" fill="#e6e6e6"/>
    <rect id="Rectangle_53" data-name="Rectangle 53" width="41.902" height="1.151" transform="matrix(0.797, -0.604, 0.604, 0.797, 304.138, 157.774)" fill="#e6e6e6"/>
    <path id="Path_147" data-name="Path 147" d="M771.95,336.018s28.778-17.267,10.36-24.174-18.418,19.569-18.418,19.569S762.741,337.169,771.95,336.018Z" transform="translate(-430.053 -195.625)" fill="#9f616a"/>
    <path id="Path_148" data-name="Path 148" d="M291.613,171.888l-1.151,44.895L308.3,211.69l-14.389.487Z" transform="translate(-118.358 -70.058)" opacity="0.1"/>
    <path id="Path_149" data-name="Path 149" d="M280.162,694.04c3.6,13.3,15.924,21.54,15.924,21.54s6.491-13.329,2.893-26.631-15.924-21.54-15.924-21.54S276.563,680.738,280.162,694.04Z" transform="translate(-232.518 -340.98)" fill="#386010"/>
    <path id="Path_150" data-name="Path 150" d="M272.862,700.364c9.874,9.612,11.08,24.388,11.08,24.388s-14.8-.808-24.677-10.42-11.08-24.388-11.08-24.388S262.988,690.751,272.862,700.364Z" transform="translate(-219.931 -350.162)" fill="#3f3d56"/>
    <rect id="Rectangle_54" data-name="Rectangle 54" width="17.776" height="17.776" transform="translate(370.916 224.641)" fill="#f2f2f2"/>
    <rect id="Rectangle_55" data-name="Rectangle 55" width="17.776" height="17.776" transform="translate(299.814 23.185)" fill="#f2f2f2"/>
    <circle id="Ellipse_17" data-name="Ellipse 17" cx="8.888" cy="8.888" r="8.888" transform="translate(85.323 185.535)" fill="#f2f2f2"/>
  </g>
</svg>
