<svg xmlns="http://www.w3.org/2000/svg" width="33.75" height="33.75" viewBox="0 0 33.75 33.75">
  <path id="Icon_simple-instagram" data-name="Icon simple-instagram" d="M16.875,0c-4.584,0-5.157.021-6.957.1a12.443,12.443,0,0,0-4.1.785,8.264,8.264,0,0,0-2.99,1.946A8.234,8.234,0,0,0,.886,5.822,12.407,12.407,0,0,0,.1,9.918c-.084,1.8-.1,2.372-.1,6.957s.021,5.157.1,6.957a12.451,12.451,0,0,0,.785,4.1,8.276,8.276,0,0,0,1.946,2.99,8.252,8.252,0,0,0,2.99,1.946,12.459,12.459,0,0,0,4.1.785c1.8.084,2.372.1,6.957.1s5.157-.021,6.957-.1a12.488,12.488,0,0,0,4.1-.785,8.624,8.624,0,0,0,4.936-4.936,12.451,12.451,0,0,0,.785-4.1c.084-1.8.1-2.372.1-6.957s-.021-5.157-.1-6.957a12.48,12.48,0,0,0-.785-4.1,8.282,8.282,0,0,0-1.946-2.99A8.222,8.222,0,0,0,27.928.886,12.415,12.415,0,0,0,23.832.1C22.032.017,21.459,0,16.875,0Zm0,3.037c4.5,0,5.041.023,6.82.1a9.3,9.3,0,0,1,3.132.584,5.553,5.553,0,0,1,3.2,3.2,9.317,9.317,0,0,1,.581,3.132c.08,1.78.1,2.315.1,6.82s-.021,5.041-.1,6.82a9.5,9.5,0,0,1-.592,3.132,5.358,5.358,0,0,1-1.264,1.943,5.265,5.265,0,0,1-1.941,1.26,9.386,9.386,0,0,1-3.143.581c-1.792.08-2.319.1-6.833.1s-5.043-.021-6.833-.1a9.569,9.569,0,0,1-3.144-.592,5.226,5.226,0,0,1-1.939-1.264,5.124,5.124,0,0,1-1.266-1.941,9.577,9.577,0,0,1-.591-3.143c-.063-1.772-.086-2.319-.086-6.812S3,11.811,3.06,10.018a9.566,9.566,0,0,1,.591-3.142A5,5,0,0,1,4.916,4.935,4.991,4.991,0,0,1,6.855,3.672,9.34,9.34,0,0,1,9.979,3.08C11.772,3.016,12.3,3,16.812,3l.063.042Zm0,5.172a8.665,8.665,0,1,0,8.665,8.665A8.665,8.665,0,0,0,16.875,8.21Zm0,14.29A5.625,5.625,0,1,1,22.5,16.875,5.623,5.623,0,0,1,16.875,22.5ZM27.908,7.868a2.025,2.025,0,1,1-2.025-2.024A2.026,2.026,0,0,1,27.908,7.868Z" fill="#939393"/>
</svg>
