<svg xmlns="http://www.w3.org/2000/svg" width="178.998" height="517.172" viewBox="0 0 178.998 517.172">
  <g id="aboutme" transform="translate(0 -253.203)">
    <line id="Line_2" data-name="Line 2" x2="175.727" transform="translate(0 769.852)" fill="none" stroke="#3f3d56" stroke-miterlimit="10" stroke-width="1"/>
    <path id="Path_45" data-name="Path 45" d="M186.016,400.825s-9.87-2.919-11.988.257,2.886,26.2,2.886,26.2l21.75,1.322-7.59-19.167Z" transform="translate(-79.284 -75.184)" fill="#2f2e41"/>
    <path id="Path_46" data-name="Path 46" d="M114.363,579.347s19.79,43.447,4.549,42.082-21.155-42.082-21.155-42.082Z" transform="translate(-83.723 -64.652)" fill="#fbc7a1"/>
    <path id="Path_47" data-name="Path 47" d="M235.854,575.294s-8.682,46.946,5.775,41.932,10.337-45.952,10.337-45.952Z" transform="translate(-75.782 -65.125)" fill="#fbc7a1"/>
    <path id="Path_48" data-name="Path 48" d="M183.714,390.907s-.227,21.837,8.189,22.975-4.777,12.738-4.777,12.738l-15.013,2.957-21.61-1.592L140.949,415.7s16.833-7.962,9.554-32.756Z" transform="translate(-81.192 -76.16)" fill="#fbc7a1"/>
    <path id="Path_50" data-name="Path 50" d="M223.282,564.952s10.691,22.975,2.275,95.084c0,0,2.5,25.477.455,30.254s-18.88,69.607-18.88,69.607-21.61,4.777-24.567-9.554c0,0,2.957-20.472,2.73-23.657s4.777-37.988,4.777-37.988l-10.236-67.332L172.1,682.1s0,17.515-2.5,21.382,0,81.663,0,81.663,7.052,11.829-3.64,12.056-20.245-.227-21.155-7.734-1.365-15.013-3.64-19.563-5.232-56.641-4.549-74.839S121.6,583.377,126.606,573.6,223.282,564.952,223.282,564.952Z" transform="translate(-82.09 -65.498)" fill="#2f2e41"/>
    <path id="Path_128" data-name="Path 128" d="M27.3,0A27.3,27.3,0,1,1,0,27.3,27.3,27.3,0,0,1,27.3,0Z" transform="translate(63.624 268.342)" fill="#fbc7a1"/>
    <path id="Path_51" data-name="Path 51" d="M145.383,414.746s16.605,12.284,40.718,2.5c0,0,7.962-3.867,7.279-9.781s16.605,47.542,16.605,47.542L227.5,548.045l-.91,37.988s-7.734-3.867-31.846,4.777-63.465-9.781-63.465-9.781l1.365-97.586,1.365-56.868,3.64-12.511S139.468,410.652,145.383,414.746Z" transform="translate(-81.759 -74.75)" fill="#f2f2f2"/>
    <path id="Path_52" data-name="Path 52" d="M182.063,399.894s4.018-.653,7.885,5.489,12.966,10.009,12.966,10.009,22.065,1.365,25.249,13.193,11.146,27.979,15.013,57.778,11.6,77.341,12.738,81.208-1.592,15.7,1.592,19.335-22.52,3.64-22.52,3.64-2.275-18.653-3.867-18.653-1.137,12.511.455,21.61-11.6,0-11.6,0-10.236-41.628-20.018-79.161-15.468-58.233-13.648-66.649,6.824-32.529,3.185-34.8S182.063,399.894,182.063,399.894Z" transform="translate(-78.783 -75.168)" fill="#2f2e41"/>
    <path id="Path_53" data-name="Path 53" d="M154.681,399.874s-5.943,3.234-20.956,13.926-25.249,18.88-25.249,18.88-5.914,4.549-9.554,31.619-11.829,97.131-8.645,106,4.322,14.1,3.185,19.335,23.885,5,24.34,3.867-.682-21.837.455-22.292,7.279,12.284,8.416,22.975S141,613.293,143.96,613.293s18.2-61.645,18.425-103.727-5-77.568-8.871-82.573S154.681,399.874,154.681,399.874Z" transform="translate(-84.204 -75.168)" fill="#2f2e41"/>
    <path id="Path_54" data-name="Path 54" d="M189.987,752.453s1.82-5,8.189-3.412,10.691-4.095,10.691-4.095,3.412-.455,1.137,3.867-4.095,7.279-4.095,7.279,13.648,31.164,4.777,38.67-19.108,2.957-19.108,2.957-10.009-7.052-9.554-25.7c0,0-.455-5.914-5.914-15.468s-9.554-24.112-2.957-26.842,8.295-2.831,8.295-2.831-3.087,14.119,4.887,19.052Z" transform="translate(-79.505 -56.007)" fill="#3f3d56"/>
    <path id="Path_55" data-name="Path 55" d="M149.267,785.019s-5.459-10.236,3.64-11.374,18.88-1.82,18.425,2.957-1.592,12.056-1.592,12.056l1.592,5.232s.455,12.966,2.047,14.558,10.236,15.241-8.189,15.241-23.885-2.047-22.292-6.369,2.047-25.7,2.047-25.7Z" transform="translate(-81.093 -53.315)" fill="#3f3d56"/>
    <path id="Path_56" data-name="Path 56" d="M164.291,352.928s12.738,3.412,19.335,4.777,5.914-2.5,5.914-2.5,8.644,1.137,8.189.227,3.64-5.687-1.137-11.146-3.412-9.554-3.412-9.554h-4.094l-1.137-1.592h-6.369s-4.777-1.82-17.288,0-29.572,2.275-30.936,9.781-8.416,16.833-5.914,21.155,16.833,22.065,18.2,29.572,7.738,9.174,7.508,4.473-6.6-21.079-1.139-21.761S166.794,361.8,164.291,352.928Z" transform="translate(-82.015 -79.126)" fill="#2f2e41"/>
  </g>
</svg>
