<svg xmlns="http://www.w3.org/2000/svg" width="33.75" height="33.75" viewBox="0 0 33.75 33.75">
  <path id="Icon_awesome-twitter-square" data-name="Icon awesome-twitter-square" d="M30.134,2.25H3.616A3.617,3.617,0,0,0,0,5.866V32.384A3.617,3.617,0,0,0,3.616,36H30.134a3.617,3.617,0,0,0,3.616-3.616V5.866A3.617,3.617,0,0,0,30.134,2.25ZM26.45,14.213c.015.211.015.429.015.64A13.962,13.962,0,0,1,12.408,28.911,13.993,13.993,0,0,1,4.821,26.7a10.41,10.41,0,0,0,1.19.06,9.906,9.906,0,0,0,6.132-2.109,4.947,4.947,0,0,1-4.618-3.428,5.325,5.325,0,0,0,2.23-.09A4.941,4.941,0,0,1,5.8,16.277v-.06a4.938,4.938,0,0,0,2.23.625,4.93,4.93,0,0,1-2.2-4.113,4.879,4.879,0,0,1,.67-2.494A14.029,14.029,0,0,0,16.687,15.4a4.951,4.951,0,0,1,8.43-4.513A9.682,9.682,0,0,0,28.251,9.7a4.928,4.928,0,0,1-2.17,2.72,9.832,9.832,0,0,0,2.848-.768A10.4,10.4,0,0,1,26.45,14.213Z" transform="translate(0 -2.25)" fill="#939393"/>
</svg>
