<svg xmlns="http://www.w3.org/2000/svg" width="34.142" height="36.005" viewBox="0 0 34.142 36.005">
  <path id="Icon_awesome-viber" data-name="Icon awesome-viber" d="M31.219,3.509C30.326,2.686,26.712.063,18.654.028c0,0-9.5-.57-14.126,3.677C1.955,6.279,1.048,10.055.949,14.73S.731,28.167,9.176,30.544h.007l-.007,3.628s-.056,1.47.914,1.765c1.167.366,1.856-.752,2.974-1.955.612-.661,1.455-1.631,2.1-2.37a32.673,32.673,0,0,0,10.723-.788c1.167-.38,7.77-1.223,8.838-9.984,1.111-9.042-.534-14.752-3.5-17.332ZM32.2,20.18c-.907,7.313-6.258,7.777-7.242,8.093a30.229,30.229,0,0,1-9.225.788s-3.656,4.409-4.8,5.555c-.373.373-.78.338-.773-.4,0-.485.028-6.026.028-6.026h0C3.03,26.205,3.452,18.745,3.53,14.843s.816-7.1,3-9.253c3.916-3.551,11.981-3.023,11.981-3.023,6.813.028,10.076,2.081,10.835,2.77,2.51,2.152,3.79,7.3,2.855,14.843ZM22.423,14.5a.454.454,0,0,1-.907.042,2.174,2.174,0,0,0-2.292-2.384.454.454,0,0,1,.049-.907A3.057,3.057,0,0,1,22.423,14.5Zm1.427.795c.07-2.981-1.793-5.316-5.33-5.576a.455.455,0,0,1,.063-.907c4.078.3,6.251,3.1,6.173,6.5a.454.454,0,0,1-.907-.021Zm3.3.942a.454.454,0,0,1-.907.007c-.042-5.73-3.86-8.852-8.494-8.887a.454.454,0,0,1,0-.907C22.936,6.483,27.105,10.062,27.155,16.235Zm-.795,6.9v.014c-.759,1.336-2.18,2.813-3.642,2.341l-.014-.021a27.027,27.027,0,0,1-7.186-3.973,18.382,18.382,0,0,1-2.981-2.981,22.817,22.817,0,0,1-2.166-3.277A21.01,21.01,0,0,1,8.543,11.32c-.471-1.462,1-2.883,2.341-3.642H10.9a1.28,1.28,0,0,1,1.68.274s.872,1.041,1.245,1.554c.352.478.823,1.245,1.069,1.673a1.468,1.468,0,0,1-.26,1.87l-.844.675a1.237,1.237,0,0,0-.373.984s1.252,4.732,5.927,5.927a1.237,1.237,0,0,0,.984-.373L21,19.42a1.468,1.468,0,0,1,1.87-.26,18.218,18.218,0,0,1,3.22,2.313,1.256,1.256,0,0,1,.267,1.659Z" transform="translate(-0.927 -0.003)" fill="#939393"/>
</svg>
